<?xml version="1.0" standalone="no"?>
<!DOCTYPE svg PUBLIC "-//W3C//DTD SVG 20010904//EN"
 "http://www.w3.org/TR/2001/REC-SVG-20010904/DTD/svg10.dtd">
<svg version="1.0" xmlns="http://www.w3.org/2000/svg"
 width="1032.000000pt" height="1032.000000pt" viewBox="0 0 1032.000000 1032.000000"
 preserveAspectRatio="xMidYMid meet">
<metadata>
Created by potrace 1.14, written by Peter Selinger 2001-2017
</metadata>
<g transform="translate(0.000000,1032.000000) scale(0.100000,-0.100000)"
fill="#000000" stroke="none">
<path d="M4940 9434 c-41 -19 -82 -39 -90 -45 -8 -5 -22 -12 -30 -15 -8 -3
-22 -10 -30 -15 -8 -5 -22 -12 -30 -15 -22 -9 -192 -93 -210 -104 -8 -5 -22
-11 -30 -14 -8 -3 -22 -10 -30 -15 -8 -5 -60 -31 -115 -57 -55 -26 -101 -51
-103 -56 -2 -4 -12 -8 -22 -8 -9 0 -23 -7 -30 -15 -7 -8 -20 -15 -30 -15 -10
0 -23 -7 -30 -15 -7 -8 -18 -15 -24 -15 -15 0 -140 -63 -144 -72 -2 -5 -12 -8
-22 -8 -10 0 -21 -4 -24 -9 -4 -5 -27 -19 -54 -31 -26 -12 -54 -25 -62 -30 -8
-4 -71 -36 -140 -70 -69 -34 -132 -65 -140 -70 -8 -4 -58 -29 -110 -55 -52
-25 -102 -51 -110 -56 -8 -5 -22 -12 -30 -15 -8 -3 -22 -9 -30 -14 -8 -5 -476
-239 -1040 -520 -564 -281 -1032 -516 -1040 -521 -8 -5 -28 -15 -45 -23 -44
-20 -177 -85 -195 -95 -8 -4 -24 -13 -35 -19 -11 -7 -24 -14 -30 -16 -5 -2
-17 -7 -25 -10 -38 -15 -76 -45 -87 -67 -10 -19 -13 -479 -13 -2134 0 -1842 2
-2113 15 -2132 8 -11 204 -115 452 -238 241 -119 461 -228 488 -242 28 -14 91
-46 140 -70 50 -25 97 -49 105 -54 8 -5 22 -12 30 -15 8 -3 22 -10 30 -15 8
-5 22 -12 30 -15 18 -8 957 -476 985 -492 11 -6 117 -59 235 -117 118 -59 222
-110 230 -115 13 -8 233 -118 500 -250 47 -23 108 -53 135 -67 28 -14 91 -46
140 -70 50 -25 97 -49 105 -54 8 -5 22 -12 30 -15 8 -3 40 -19 70 -34 30 -16
80 -40 110 -55 30 -15 62 -31 70 -35 126 -71 364 -180 391 -180 23 0 120 43
314 141 281 140 300 150 333 169 9 6 24 13 32 16 8 3 38 17 65 31 28 14 217
109 420 210 204 101 377 188 385 192 8 5 98 50 200 101 102 50 192 95 200 100
8 4 160 81 338 170 178 90 338 173 356 185 19 13 116 64 217 115 101 51 191
96 199 100 8 5 53 27 100 50 143 71 324 161 342 171 52 27 354 176 493 243 88
43 167 82 175 87 8 5 24 13 35 18 11 5 29 18 39 30 19 21 20 61 20 2140 1
2105 1 2119 -19 2141 -11 12 -29 26 -40 31 -11 5 -27 13 -35 18 -8 5 -71 37
-140 71 -124 62 -151 75 -180 92 -8 4 -22 11 -30 14 -16 7 -729 362 -770 384
-14 7 -32 17 -40 22 -8 4 -22 11 -30 14 -28 12 -274 135 -307 154 -10 6 -25
13 -33 16 -8 3 -22 10 -30 15 -8 5 -22 12 -30 16 -16 6 -186 90 -210 103 -8 4
-37 19 -65 32 -76 38 -169 89 -175 97 -3 4 -54 32 -115 62 -60 30 -112 56
-115 59 -3 3 -23 13 -45 24 -22 10 -47 22 -55 27 -8 5 -22 12 -30 15 -8 3 -22
10 -30 15 -8 5 -22 12 -30 15 -30 13 -985 489 -990 494 -3 3 -23 13 -45 24
-22 10 -47 22 -55 27 -8 5 -22 12 -30 15 -8 3 -22 10 -30 15 -8 5 -22 12 -30
15 -14 6 -443 215 -482 235 -33 17 -83 9 -158 -27z m-2306 -2946 c191 -37 337
-109 452 -223 107 -106 161 -236 179 -427 l7 -78 -149 0 -148 0 -17 80 c-41
198 -141 309 -333 370 -96 31 -344 39 -455 16 -146 -31 -249 -106 -307 -223
-25 -53 -28 -68 -28 -163 0 -96 2 -109 27 -151 65 -111 162 -149 688 -270 146
-33 299 -72 340 -86 310 -103 466 -327 445 -638 -11 -173 -58 -300 -147 -400
-108 -121 -300 -213 -544 -261 -119 -24 -395 -24 -511 -1 -408 82 -654 340
-680 715 l-6 92 146 0 146 0 6 -37 c28 -175 62 -257 140 -341 66 -72 144 -118
248 -151 75 -23 98 -25 272 -25 165 0 200 3 268 22 161 45 272 123 325 232 24
49 27 66 27 160 0 95 -3 111 -28 162 -65 132 -179 184 -632 287 -453 103 -567
146 -684 256 -116 110 -157 224 -149 420 4 95 11 136 32 200 96 283 346 457
691 484 133 10 259 3 379 -21z m2373 -38 c441 -34 663 -246 663 -635 0 -239
-82 -401 -261 -521 l-71 -47 63 -33 c73 -39 142 -103 170 -156 39 -75 49 -148
59 -403 6 -137 15 -281 20 -320 12 -82 50 -166 85 -189 16 -10 25 -26 25 -41
l0 -25 -195 0 -194 0 -10 38 c-18 67 -21 104 -36 397 -19 370 -31 416 -130
503 -86 75 -91 76 -617 80 l-468 3 0 -510 0 -511 -160 0 -160 0 0 1190 0 1190
543 0 c298 0 601 -5 674 -10z m1611 -47 c38 -111 575 -1689 619 -1821 25 -74
49 -130 54 -125 4 4 73 202 153 438 139 414 421 1250 493 1463 l35 102 224 0
224 0 0 -1190 0 -1190 -151 0 -152 0 5 1000 c2 550 2 997 -1 994 -3 -3 -157
-452 -342 -997 l-336 -992 -158 0 -158 0 -333 980 c-184 539 -338 989 -343
1000 -5 12 -7 -381 -3 -982 l5 -1003 -156 0 -157 0 0 1183 c0 651 3 1187 7
1190 3 4 106 7 229 7 l222 0 20 -57z m-1886 -3004 c87 -19 152 -53 210 -112
58 -57 102 -136 114 -199 l6 -38 -69 0 -68 0 -18 48 c-48 137 -193 210 -360
183 -152 -26 -256 -134 -293 -306 -20 -90 -17 -229 6 -318 45 -179 146 -269
321 -284 160 -14 279 70 331 234 l23 73 68 0 c76 0 74 2 52 -83 -57 -220 -226
-347 -458 -347 -51 0 -114 6 -142 14 -174 46 -294 176 -341 372 -24 96 -24
297 -1 384 52 194 185 333 360 376 66 16 191 17 259 3z m898 -23 c0 -7 -81
-307 -87 -322 -4 -11 13 -14 84 -14 l90 0 33 123 c18 67 39 143 47 170 l14 47
49 0 c28 0 50 -3 50 -7 0 -5 -20 -80 -44 -168 l-43 -160 87 -3 88 -3 -10 -39
-10 -40 -89 0 -88 0 -15 -52 c-31 -107 -56 -203 -56 -210 0 -5 38 -8 85 -8 47
0 85 -4 85 -9 0 -4 -5 -22 -11 -39 l-11 -31 -86 -3 -87 -3 -45 -165 -46 -165
-53 -3 c-47 -3 -52 -1 -47 15 2 10 21 79 41 153 20 74 39 143 41 153 5 15 -4
17 -84 17 l-89 0 -44 -167 -44 -168 -52 -3 c-29 -2 -53 -2 -53 0 0 4 78 294
86 321 5 15 -3 17 -80 17 -47 0 -86 4 -86 9 0 5 3 22 6 39 l6 31 91 3 90 3 34
120 c18 66 33 126 33 133 0 9 -24 12 -86 12 -81 0 -85 1 -80 20 3 11 9 29 12
40 5 18 14 20 95 20 49 0 89 2 89 6 0 6 78 303 85 322 4 11 105 19 105 8z"/>
<path d="M4110 5774 l0 -416 438 5 c472 5 502 8 617 63 68 32 138 108 162 177
14 40 18 82 18 177 0 160 -17 211 -95 291 -106 107 -179 119 -737 119 l-403 0
0 -416z"/>
<path d="M5511 2928 c-13 -45 -61 -224 -61 -232 0 -3 38 -6 85 -6 l84 0 17 58
c8 31 24 87 35 123 10 36 19 71 19 78 0 7 -28 11 -84 11 l-84 0 -11 -32z"/>
</g>
</svg>
