<?xml version="1.0" standalone="no"?>
<!DOCTYPE svg PUBLIC "-//W3C//DTD SVG 20010904//EN"
 "http://www.w3.org/TR/2001/REC-SVG-20010904/DTD/svg10.dtd">
<svg version="1.0" xmlns="http://www.w3.org/2000/svg"
 width="388.000000pt" height="388.000000pt" viewBox="0 0 388.000000 388.000000"
 preserveAspectRatio="xMidYMid meet">
<metadata>
Created by potrace 1.14, written by Peter Selinger 2001-2017
</metadata>
<g transform="translate(0.000000,388.000000) scale(0.100000,-0.100000)"
fill="#000000" stroke="none">
<path d="M1915 3520 c3 -5 1 -10 -4 -10 -8 0 -11 -65 -11 -196 0 -214 2 -207
-65 -238 -22 -11 -42 -22 -45 -25 -3 -3 -18 -13 -35 -22 -113 -61 -154 -84
-180 -103 -16 -11 -31 -19 -32 -16 -1 3 -13 -4 -25 -15 -13 -10 -23 -18 -23
-17 0 1 -10 -1 -22 -4 -13 -4 -23 -10 -23 -15 0 -5 -7 -9 -15 -9 -8 0 -15 -5
-15 -11 0 -5 -4 -8 -8 -5 -5 3 -20 -5 -33 -17 l-26 -22 -2 -300 c-1 -164 -6
-306 -11 -315 -5 -8 -10 -11 -10 -7 0 4 -17 -4 -37 -18 -21 -14 -41 -25 -46
-25 -4 0 -26 -12 -50 -27 -23 -15 -45 -26 -50 -25 -4 1 -7 -3 -7 -9 0 -5 -4
-7 -10 -4 -5 3 -10 2 -10 -3 0 -6 -11 -13 -25 -16 -14 -4 -25 -11 -25 -17 0
-6 -4 -8 -9 -5 -13 9 -61 -41 -61 -63 0 -11 9 -25 20 -31 17 -9 32 -4 88 26
37 21 70 43 74 48 4 6 8 7 8 2 0 -5 6 -4 13 2 6 5 44 27 82 47 39 21 72 41 75
44 12 14 43 10 70 -9 17 -12 30 -18 30 -13 0 4 4 3 8 -3 4 -6 30 -24 57 -39
28 -16 69 -41 91 -56 23 -16 44 -25 48 -22 3 4 6 1 6 -5 0 -7 6 -12 14 -12 7
0 19 -7 26 -15 7 -8 16 -12 21 -9 5 3 9 1 9 -4 0 -8 50 -36 58 -32 2 1 10 -7
18 -17 7 -10 14 -14 14 -9 0 5 11 0 24 -13 33 -31 87 -38 111 -15 10 11 20 18
22 16 5 -4 67 30 74 40 3 5 9 9 13 9 12 -1 76 33 76 41 0 5 4 7 9 4 5 -3 14 1
21 9 7 8 19 15 26 15 8 0 14 5 14 11 0 5 5 7 10 4 6 -3 10 -1 10 6 0 7 3 9 6
6 4 -4 19 2 34 13 16 11 33 20 39 20 6 0 11 4 11 9 0 5 11 12 25 15 13 3 41
18 61 31 39 26 64 26 95 -1 9 -8 19 -11 22 -7 4 3 7 1 7 -6 0 -7 5 -9 10 -6 6
3 10 2 10 -4 0 -6 17 -18 38 -28 20 -9 39 -19 42 -22 9 -10 64 -42 83 -48 9
-3 17 -9 17 -13 0 -12 78 -40 94 -34 23 9 30 43 13 62 -9 9 -37 28 -64 42 -26
14 -50 28 -53 31 -3 3 -54 34 -113 69 l-109 63 6 306 c5 283 4 308 -12 319
-35 25 -285 172 -292 172 -4 0 -15 9 -25 20 -10 11 -22 20 -26 20 -5 0 -46 22
-92 49 l-83 50 -1 199 c0 110 -3 205 -7 211 -4 6 -21 11 -37 11 -18 0 -28 -4
-24 -10z m78 -517 c20 -13 37 -21 37 -17 0 3 7 -2 16 -10 8 -9 20 -13 26 -10
7 4 8 2 4 -4 -4 -7 -1 -12 8 -12 9 0 16 -5 16 -11 0 -6 7 -8 16 -5 8 3 12 2 9
-4 -3 -6 -2 -10 2 -10 5 0 50 -24 100 -54 51 -30 94 -51 97 -48 3 3 6 0 6 -7
0 -6 12 -16 26 -21 l27 -11 -24 -22 c-13 -13 -27 -22 -31 -20 -5 2 -8 -1 -8
-6 0 -6 -3 -10 -7 -9 -15 4 -53 -14 -53 -24 0 -6 -3 -8 -6 -5 -4 4 -19 -2 -34
-13 -16 -11 -33 -20 -40 -20 -6 0 -8 -5 -4 -12 5 -7 3 -8 -6 -3 -8 5 -18 1
-27 -11 -8 -10 -17 -18 -21 -18 -4 1 -25 -8 -47 -19 -22 -12 -43 -20 -47 -19
-5 1 -8 -2 -8 -7 0 -5 -13 -14 -30 -20 -16 -5 -30 -14 -30 -20 0 -11 -52 -4
-60 8 -6 9 -104 66 -142 83 -16 7 -28 16 -28 21 0 4 -4 5 -10 2 -5 -3 -10 -2
-10 3 0 5 -18 17 -40 28 -22 10 -40 22 -40 27 0 4 -7 7 -15 7 -8 0 -15 5 -15
11 0 6 -6 9 -14 6 -8 -3 -17 1 -20 9 -3 9 -10 13 -15 10 -5 -3 -14 1 -21 9 -7
8 -16 13 -20 10 -5 -3 -7 2 -6 12 2 9 29 30 62 47 32 17 64 38 71 46 7 8 13
11 13 7 0 -5 13 1 29 12 16 12 34 21 40 21 6 0 11 5 11 10 0 6 3 9 8 9 20 -3
32 2 26 13 -4 6 -3 9 2 6 13 -8 75 27 66 37 -4 5 -2 6 3 3 13 -8 97 37 88 46
-13 13 31 -7 70 -31z m-480 -338 c32 -19 62 -35 68 -35 5 0 9 -4 9 -10 0 -5 4
-10 10 -10 5 0 30 -13 56 -30 26 -16 52 -27 58 -23 6 3 8 2 4 -2 -7 -7 51 -46
137 -91 l31 -16 -1 -259 c0 -142 -1 -259 -3 -259 -10 0 -68 35 -74 44 -4 6 -8
7 -8 3 0 -5 -12 1 -26 12 -15 12 -33 21 -40 21 -8 0 -14 5 -14 11 0 5 -4 7
-10 4 -5 -3 -10 -2 -10 2 0 5 -17 17 -37 28 -21 10 -49 27 -63 36 -44 30 -114
70 -132 76 -10 3 -20 15 -24 27 -11 32 -6 506 5 506 3 0 32 -16 64 -35z m912
-233 c-2 -136 -4 -250 -4 -254 -1 -3 -27 -21 -58 -39 -32 -18 -61 -37 -65 -43
-4 -6 -8 -7 -8 -3 0 5 -12 0 -27 -10 -16 -10 -45 -27 -65 -37 -21 -11 -38 -23
-38 -28 0 -4 -3 -7 -7 -6 -16 4 -53 -14 -47 -23 3 -5 2 -8 -3 -7 -13 4 -73
-23 -73 -33 0 -5 -3 -8 -7 -7 -5 1 -17 -3 -29 -9 l-20 -12 2 237 c1 130 3 247
3 259 1 16 15 31 54 52 28 16 57 34 62 38 6 5 13 10 18 11 20 4 127 66 127 74
0 5 4 7 9 3 5 -3 17 2 25 11 9 8 16 13 16 10 0 -4 18 5 40 19 22 14 44 25 50
25 5 0 10 5 10 11 0 5 5 7 10 4 6 -3 10 -1 10 5 0 6 4 9 9 6 5 -4 8 -112 6
-254z"/>
<path d="M564 1487 c-10 -6 -24 -12 -30 -13 -19 -3 -74 -56 -68 -65 3 -5 0 -9
-6 -9 -6 0 -9 -4 -5 -9 3 -5 1 -12 -4 -16 -13 -8 -2 -83 16 -111 23 -36 120
-93 146 -86 4 1 7 -3 7 -8 0 -5 3 -9 8 -8 4 1 19 -4 34 -12 40 -19 50 -76 18
-100 -29 -22 -95 -18 -157 10 -58 25 -55 26 -76 -9 -19 -32 -23 -66 -7 -56 6
3 10 1 10 -5 0 -6 4 -9 9 -6 5 4 11 2 13 -3 5 -16 112 -40 164 -36 139 8 216
100 178 211 -16 46 -86 108 -131 116 -5 1 -22 7 -40 15 -18 7 -35 13 -38 13
-3 0 -13 8 -23 18 -21 21 -22 54 -1 74 21 21 119 15 167 -11 25 -13 62 19 62
53 0 23 -5 26 -75 51 -34 12 -151 13 -171 2z"/>
<path d="M920 1450 c-1 -22 -1 -98 -1 -170 0 -71 0 -175 1 -230 l0 -100 55 0
c30 0 56 3 56 8 1 4 2 48 3 97 1 86 2 90 25 93 49 7 68 -6 92 -65 13 -32 24
-64 25 -71 2 -7 10 -24 18 -38 13 -18 25 -24 54 -24 20 0 45 6 54 14 16 12 16
15 -3 44 -10 18 -19 37 -19 42 0 5 -5 21 -12 37 -6 15 -12 31 -12 35 -1 4 -11
16 -23 28 -13 11 -23 23 -23 25 0 3 17 23 38 44 41 42 43 49 43 124 0 59 -28
102 -85 128 -33 15 -66 19 -163 19 l-123 0 0 -40z m228 -52 c6 -1 10 -3 7 -6
-2 -2 2 -10 9 -18 19 -19 13 -92 -10 -112 -12 -11 -38 -18 -69 -18 l-51 -2 2
77 c1 42 2 78 3 81 1 5 53 4 109 -2z"/>
<path d="M1429 1443 c-1 -27 -3 -57 -4 -68 -1 -11 -5 -63 -9 -115 -8 -105 -15
-191 -21 -261 l-5 -46 55 -2 c47 -2 55 1 56 16 1 10 3 34 5 53 1 19 4 104 6
188 3 129 5 152 18 150 8 -2 16 -14 17 -28 2 -31 10 -69 30 -145 18 -70 17
-69 27 -117 l8 -36 63 0 62 1 13 56 c8 31 14 61 16 66 1 6 6 28 12 50 19 70
24 99 24 128 -1 19 4 27 16 27 16 0 18 -16 20 -157 1 -87 4 -171 6 -188 2 -16
4 -38 5 -47 1 -15 10 -18 51 -18 33 0 50 4 51 13 3 19 1 46 -5 137 -4 47 -9
125 -12 173 -3 48 -7 96 -9 105 -2 9 -4 38 -4 65 l-1 47 -80 0 -79 0 -10 -37
c-5 -21 -19 -81 -32 -133 -37 -160 -40 -171 -48 -166 -5 3 -11 24 -15 48 -6
38 -50 230 -62 271 -5 14 -18 17 -85 17 l-79 0 -1 -47z"/>
<path d="M2066 1298 c2 -212 4 -224 33 -271 63 -103 274 -109 346 -11 11 15
20 30 20 33 0 3 4 12 9 20 5 8 10 106 11 218 l2 203 -58 0 -59 0 -2 -182 c-1
-101 -2 -190 -4 -198 -1 -8 -2 -21 -3 -28 -1 -18 -58 -50 -84 -47 -12 1 -30 3
-40 4 -9 0 -25 14 -35 30 -15 25 -19 57 -20 203 -3 204 -8 218 -76 218 l-43 0
3 -192z"/>
<path d="M2610 1220 l0 -270 58 0 58 0 0 108 0 107 87 3 87 3 0 49 0 49 -87 3
-88 3 1 55 0 55 102 5 c113 5 122 10 122 68 l0 32 -170 0 -170 0 0 -270z"/>
<path d="M3076 1404 c-15 -48 -29 -92 -30 -98 -1 -6 -5 -17 -9 -23 -5 -7 -5
-13 -1 -13 3 0 2 -6 -4 -13 -6 -7 -13 -24 -16 -39 -2 -14 -9 -36 -16 -47 -6
-12 -8 -21 -4 -21 3 0 2 -6 -3 -12 -6 -7 -14 -26 -18 -43 -12 -44 -12 -45 -15
-50 -1 -3 -3 -8 -5 -12 -1 -5 -7 -21 -13 -36 -7 -16 -12 -32 -12 -37 0 -14
115 -7 116 8 1 6 2 13 4 15 1 1 3 9 5 17 2 8 8 27 14 43 10 27 12 27 100 27
l90 0 10 -37 c18 -65 36 -83 87 -83 27 0 46 5 49 13 3 6 -33 127 -78 267 l-83
255 -70 3 -70 3 -28 -87z m110 -85 c9 -30 19 -67 23 -84 4 -16 11 -39 15 -51
6 -19 2 -20 -54 -21 -33 0 -60 4 -60 8 0 5 9 42 21 82 24 86 27 98 28 116 2
24 12 5 27 -50z"/>
<path d="M540 764 c-36 -16 -70 -46 -70 -64 0 -5 -4 -10 -8 -10 -33 0 -45
-214 -15 -263 4 -6 8 -18 9 -25 6 -39 120 -101 162 -88 9 3 33 8 52 11 19 3
36 10 38 16 2 5 12 9 22 9 10 0 26 10 34 22 14 19 13 23 -6 43 -18 19 -26 21
-45 12 -13 -5 -23 -13 -23 -17 0 -7 -9 -9 -55 -9 -48 -1 -59 2 -77 21 -10 10
-16 18 -13 18 3 0 0 10 -6 22 -17 31 -14 156 4 186 5 6 5 18 1 25 -4 6 -4 9 1
5 5 -5 14 0 21 11 13 18 41 21 80 8 22 -8 44 -46 44 -76 0 -29 29 -35 73 -16
12 5 17 19 17 46 0 93 -137 158 -240 113z"/>
<path d="M964 768 c-3 -4 -9 -6 -14 -3 -4 3 -13 -2 -20 -10 -7 -8 -18 -15 -24
-15 -11 0 -46 -49 -43 -61 1 -3 -4 -14 -12 -23 -20 -24 -24 -159 -6 -202 7
-18 11 -35 7 -38 -3 -3 0 -6 7 -6 7 0 10 -4 7 -8 -7 -11 49 -62 67 -62 9 0 17
-5 19 -12 3 -8 26 -12 64 -12 77 0 138 32 168 89 29 55 30 59 29 151 -1 112
-37 177 -115 209 -40 16 -125 18 -134 3z m112 -79 c32 -27 48 -139 30 -219
-11 -49 -43 -80 -81 -80 -30 0 -69 20 -71 37 0 4 -4 16 -9 26 -12 28 -12 138
0 181 6 21 19 44 28 51 9 7 14 14 11 17 -10 11 79 -2 92 -13z"/>
<path d="M1349 772 c-23 -3 -26 -7 -27 -50 -1 -26 -4 -63 -7 -82 -5 -43 -18
-220 -19 -275 l-1 -40 43 -3 c41 -3 42 -3 44 30 0 18 2 44 3 58 2 14 4 78 6
143 3 86 7 117 16 117 8 0 13 -12 13 -28 0 -16 6 -50 14 -76 8 -25 14 -50 14
-54 1 -4 6 -33 13 -64 l13 -58 53 0 c35 0 54 4 55 13 1 15 5 30 8 37 1 3 4 14
6 25 6 37 9 50 18 63 4 7 5 16 2 19 -3 3 0 15 6 26 5 11 10 37 10 59 -1 31 3
38 18 38 18 0 19 -8 17 -97 -1 -54 0 -133 1 -175 l2 -78 51 0 c27 0 48 3 46 8
-3 4 -8 52 -11 107 -4 55 -8 120 -11 145 -2 25 -7 77 -11 115 -3 39 -8 72 -10
74 -9 9 -114 5 -123 -5 -5 -5 -12 -22 -15 -39 -2 -16 -7 -40 -10 -52 -3 -13
-9 -33 -12 -45 -3 -13 -10 -51 -17 -85 -12 -67 -37 -88 -37 -32 0 17 -12 83
-27 145 -25 108 -28 114 -52 115 -14 0 -33 1 -41 3 -8 1 -27 0 -41 -2z"/>
<path d="M1898 772 l-38 -3 0 -225 0 -224 50 0 50 0 0 74 0 73 49 1 c64 2 99
16 133 54 26 30 32 45 31 93 -1 60 -5 74 -28 99 -13 14 -21 26 -17 27 4 0 -4
5 -18 11 -28 13 -156 25 -212 20z m159 -98 c17 -23 17 -85 0 -108 -9 -12 -28
-19 -53 -20 l-39 -1 -1 79 0 78 40 -5 c22 -3 46 -14 53 -23z"/>
<path d="M2339 770 c-19 -5 -30 -26 -70 -148 -25 -78 -44 -142 -41 -142 2 0
-1 -6 -7 -13 -6 -8 -13 -24 -15 -38 -3 -13 -5 -25 -7 -26 -1 -2 -2 -6 -3 -10
-1 -5 -5 -14 -9 -20 -5 -7 -6 -13 -2 -13 3 0 1 -9 -5 -21 -11 -19 -9 -20 36
-17 46 3 47 3 62 51 l15 47 77 0 c83 0 81 1 95 -60 2 -8 12 -20 21 -27 23 -17
84 -17 84 0 0 6 -30 107 -67 224 l-68 211 -36 4 c-20 2 -47 1 -60 -2z m59
-179 c12 -43 22 -83 22 -88 0 -9 -86 -11 -95 -2 -5 6 38 169 46 169 3 0 16
-35 27 -79z"/>
<path d="M2665 772 c-20 -3 -21 -9 -21 -227 l1 -225 45 0 45 0 -2 107 c-1 60
-4 134 -7 166 -5 46 -3 57 9 57 8 0 15 -8 15 -18 0 -10 7 -28 16 -40 8 -12 12
-22 9 -22 -3 0 0 -10 7 -22 7 -13 11 -26 10 -30 -1 -5 3 -8 10 -8 6 0 9 -3 5
-6 -3 -4 1 -21 10 -38 10 -17 18 -33 18 -36 1 -3 7 -18 13 -33 7 -16 12 -33
12 -38 0 -5 5 -9 10 -9 6 0 9 -6 8 -12 -2 -9 15 -13 60 -14 l62 -2 0 228 0
227 -31 -3 c-58 -7 -60 -14 -58 -166 1 -76 6 -141 11 -144 16 -10 8 -34 -12
-34 -14 0 -20 7 -20 21 0 12 -21 69 -46 128 -86 196 -81 189 -122 193 -20 1
-46 2 -57 0z"/>
<path d="M3081 766 c-19 -11 -19 -11 0 -50 10 -22 19 -46 19 -53 0 -7 5 -13
12 -13 6 0 8 -3 5 -6 -3 -4 -1 -16 5 -28 7 -11 11 -24 10 -28 -1 -5 3 -8 8 -8
6 0 9 -3 8 -7 -3 -14 14 -63 21 -63 10 0 12 -10 18 -107 l5 -83 47 0 48 0 1
73 c0 82 2 90 25 133 9 17 13 34 10 38 -4 3 -1 6 5 6 7 0 12 4 12 9 0 5 5 22
11 38 6 15 10 30 11 33 0 3 4 11 10 18 6 6 7 12 2 12 -5 0 -4 4 1 8 11 8 35
57 35 72 0 6 -19 10 -43 10 -42 0 -43 -1 -62 -47 -11 -26 -20 -50 -20 -53 0
-3 -3 -9 -6 -15 -4 -5 -12 -27 -18 -47 -7 -21 -16 -38 -20 -38 -4 0 -24 45
-46 99 -34 89 -41 100 -66 103 -15 3 -37 0 -48 -6z"/>
</g>
</svg>
